HIERARCHY
ROOT Hips
{
 OFFSET 0.000000 0.000000 0.000000
 CHANNELS 6 Xposition Yposition Zposition Zrotation Xrotation Yrotation
 JOINT Chest
 {
  OFFSET 0.000000 4.000000 0.000000
  CHANNELS 3 Zrotation Xrotation Yrotation
  JOINT Head
  {
   OFFSET 0.000000 24.803150 0.000000
   CHANNELS 3 Zrotation Xrotation Yrotation
   End Site
   {
    OFFSET 0.000000 9.448819 0.000000
   }
  }
  JOINT LeftUpArm
  {
   OFFSET 7.086614 23.228346 0.000000
   CHANNELS 3 Zrotation Xrotation Yrotation
   JOINT LeftLowArm
   {
    OFFSET 0.000000 -11.811024 0.000000
    CHANNELS 3 Zrotation Xrotation Yrotation
    End Site
    {
     OFFSET 0.000000 -11.811024 0.000000
    }
   }
  }
  JOINT RightUpArm
  {
   OFFSET -7.086614 23.228346 0.000000
   CHANNELS 3 Zrotation Xrotation Yrotation
   JOINT RightLowArm
   {
    OFFSET 0.000000 -11.811024 0.000000
    CHANNELS 3 Zrotation Xrotation Yrotation
    End Site
    {
     OFFSET 0.000000 -11.811024 0.000000
    }
   }
  }
 }
 JOINT LeftUpLeg
 {
  OFFSET 3.937008 0.000000 0.000000
  CHANNELS 3 Zrotation Xrotation Yrotation
  JOINT LeftLowLeg
  {
   OFFSET 0.000000 -16.929134 0.000000
   CHANNELS 3 Zrotation Xrotation Yrotation
   End Site
   {
    OFFSET 0.000000 -19.685040 0.000000
   }
  }
 }
 JOINT RightUpLeg
 {
  OFFSET -3.937008 0.000000 0.000000
  CHANNELS 3 Zrotation Xrotation Yrotation
  JOINT RightLowLeg
  {
   OFFSET 0.000000 -16.929134 0.000000
   CHANNELS 3 Zrotation Xrotation Yrotation
   End Site
   {
    OFFSET 0.000000 -19.685040 0.000000
   }
  }
 }
}
MOTION
Frames: 33      
Frame Time: 0.033333
-80.624527 1.749077 51.725212 -3.292930 3.891509 87.065659 -5.215965 2.984299 2.009308 -7.239124 1.231000 6.758986 8.652223 6.668087 1.422530 1.787565 5.524151 -22.410692 -5.800039 -11.042589 8.134111 4.150795 -19.295956 7.070709 -1.780177 -27.679913 0.852650 -1.762611 28.806965 -4.712748 -2.585332 -9.978697 -20.006533 -44.060650 59.184578 38.690926
-79.437973 1.960021 51.417583 -3.587362 3.707728 87.321762 -4.724619 2.837898 1.462694 -7.586638 1.540872 7.081563 8.977611 4.427104 -1.028820 0.413737 3.398961 -21.927399 -5.604756 -9.174963 7.197396 4.104159 -18.257610 8.617382 -2.104615 -25.674383 0.746136 -1.519704 27.353868 -4.700838 -2.728645 -14.015390 -19.913553 -49.630688 63.284046 42.755520
-77.785576 2.267647 51.320904 -3.866284 3.517364 88.316429 -3.878754 3.137154 0.389653 -7.792837 1.301381 6.864817 9.463014 0.360597 -4.553622 -1.494267 1.208038 -21.198921 -5.715818 -7.441015 5.173261 4.122998 -16.222076 11.044409 -2.416245 -22.576502 -0.238362 -1.681176 24.930761 -4.281405 -3.411717 -19.533869 -19.183126 -54.900452 68.437035 46.181805
-75.807976 2.425855 50.986908 -4.113981 2.878357 89.390915 -2.547486 3.137115 -0.852138 -7.901972 1.759396 6.413555 9.830301 -4.826945 -7.646677 -2.608880 -1.557594 -20.380232 -5.816146 -4.547316 2.887776 3.968607 -13.753843 12.887349 -2.170748 -18.737982 -0.836652 -1.734638 21.960361 -4.248297 -3.162575 -26.173645 -16.164080 -49.965714 72.054756 40.713417
-74.331367 2.601642 51.136326 -4.525476 2.533896 90.673836 -1.719137 3.085910 -1.943147 -7.791705 1.739318 6.060026 9.707229 -8.955421 -9.571073 -2.685377 -3.659594 -19.231655 -5.522058 -1.723854 -0.062721 3.777826 -11.553280 14.873491 -2.039816 -16.400515 -1.572177 -1.958359 20.503944 -4.182772 -3.013879 -30.024467 -13.748631 -36.238998 71.931053 27.493464
-73.039337 2.557695 51.206642 -4.940958 2.255512 91.471909 -1.072584 3.361543 -2.444272 -7.634107 1.537817 5.529138 9.887931 -15.062247 -10.702014 -1.853907 -6.833260 -17.750961 -5.303363 0.891582 -3.390294 3.906122 -7.762913 16.018360 -2.064565 -13.095577 -1.730563 -1.954794 18.938639 -3.845955 -1.858061 -34.191433 -9.263638 -14.197012 66.614647 7.133743
-72.784447 2.478591 51.294533 -5.027741 2.266958 91.529709 -0.934590 3.397961 -2.465802 -7.717660 1.416283 5.453780 9.766393 -15.742084 -10.776875 -1.777094 -6.955511 -17.530832 -5.204832 1.457820 -4.236844 3.913412 -6.776742 16.534573 -1.996358 -12.607784 -1.734413 -2.119661 18.932276 -3.578783 -1.840291 -34.551361 -8.830288 -12.136350 65.407173 5.488126
-70.094910 2.258858 51.549423 -5.330536 2.237783 92.759819 0.051312 3.611727 -3.667762 -8.042507 0.990609 5.346858 9.732300 -24.465290 -10.956021 -0.305489 -10.171808 -15.161592 -4.755932 5.208840 -9.295438 2.677599 0.414159 18.101683 -2.987438 -5.683004 -2.376904 -1.845152 16.361744 -2.897473 -0.452393 -36.424492 -4.065457 0.315397 44.391605 -2.484087
-68.855614 2.012757 51.681263 -5.127810 2.293442 93.187538 0.479891 3.965908 -4.073020 -8.265695 0.850932 5.105365 9.466085 -26.986450 -10.801179 -0.039324 -11.106529 -14.473206 -4.897876 6.366114 -11.442422 1.258901 3.334772 17.183941 -3.117434 -2.801192 -2.448979 -1.814774 15.291832 -2.900687 0.154719 -35.594044 -3.159661 -0.977965 36.106335 -0.216768
-67.220802 1.617237 51.804314 -4.806587 2.349500 93.665840 0.782188 4.034351 -4.476501 -8.315763 0.965361 4.541487 9.179084 -29.226875 -11.080281 0.106719 -11.834070 -13.508443 -5.003338 8.121446 -13.476348 -0.699746 4.861737 17.679892 -2.980006 0.386888 -2.183261 -1.932755 14.868026 -3.461345 0.550724 -34.331696 -3.379240 -3.299037 28.305916 1.795451
-64.988312 1.221717 51.751579 -4.384488 2.106575 94.104034 1.372548 4.062369 -5.133660 -8.455737 1.252388 4.691604 9.144361 -31.190458 -10.967531 0.576605 -14.071566 -12.357986 -5.256441 10.129869 -15.629620 -4.347195 7.574494 18.853182 -2.422109 4.474936 -1.046824 -1.520007 15.273447 -4.671120 1.372313 -32.253853 -2.744150 -5.007707 18.047373 2.361361
-63.625965 0.799829 51.874630 -3.725707 2.101008 93.842384 1.517483 4.509706 -5.023082 -8.509769 1.283483 4.754375 9.109688 -31.564856 -10.704815 0.949143 -15.232917 -11.999249 -5.339665 11.294874 -16.888863 -5.629108 9.097950 19.639271 -1.953010 6.884728 0.204946 -1.386627 17.364367 -4.498668 2.248283 -30.400940 -2.965903 -5.314835 15.710567 4.150784
-62.395458 0.808618 51.927364 -3.188113 1.845418 93.511070 2.068371 4.652516 -4.797127 -8.705531 1.479341 5.063831 8.977073 -31.170774 -10.277845 0.916068 -16.265284 -12.041177 -5.764781 12.172635 -17.274147 -6.291216 10.524491 19.439487 -1.190749 8.068299 1.284988 -1.038769 19.974274 -4.579665 2.957707 -29.394466 -1.720961 -4.544527 16.197496 4.132010
-60.101444 0.782250 52.103153 -2.063732 1.421896 93.224495 3.056460 5.195253 -4.894008 -9.043600 2.008186 5.206089 8.505089 -29.315701 -9.141221 0.702173 -17.222841 -12.491633 -6.462465 12.653688 -17.059437 -7.543231 12.289334 19.591270 0.838501 8.384275 3.564456 -0.708612 27.906170 -5.819494 3.976350 -27.402220 1.746783 -3.482309 20.173033 3.328472
-58.651203 0.896512 52.094364 -1.767129 1.123174 93.157738 3.547812 5.225368 -4.786376 -9.002121 2.458506 5.105603 8.076118 -27.696661 -8.582368 0.376491 -17.435644 -13.323004 -6.567001 12.217520 -16.769510 -7.900239 13.404078 18.959557 2.312497 7.038273 4.728343 0.828942 35.135830 -8.813724 4.756107 -26.415535 3.140233 -2.748972 22.264387 3.367927
-56.550552 0.949248 52.208626 -1.745441 0.877467 93.417549 3.921778 4.980289 -4.712688 -8.492832 3.062222 4.474913 7.162557 -24.305132 -8.251890 -0.116409 -16.672459 -15.073184 -6.657803 10.967709 -14.549342 -7.374408 13.250571 17.141933 3.581556 1.218845 5.161589 4.130965 48.443241 -12.828316 5.625075 -24.177586 5.120871 -3.089899 25.357262 2.196173
-55.284889 1.063509 52.234993 -1.981526 0.746636 93.875336 3.824334 4.893417 -4.797166 -7.880872 3.233126 3.854225 6.935057 -22.563217 -8.125210 -0.374236 -15.806766 -16.331057 -6.465630 9.526082 -12.653058 -6.240862 12.638199 15.988192 4.053341 -3.194161 4.481211 7.573722 56.769154 -16.825779 5.789938 -22.823997 5.803600 -2.512968 26.333191 0.285031
-53.324871 1.388714 52.287727 -2.634174 0.593772 94.134857 3.315259 4.493330 -4.139036 -7.117889 3.660671 3.054443 6.886220 -19.212671 -7.707105 -0.740831 -13.788340 -18.915449 -6.621211 7.217746 -7.809453 -3.162994 9.954932 11.404888 3.464805 -12.030447 2.375417 12.472123 68.746170 -20.824451 6.130877 -20.143930 5.303929 -2.774060 25.933743 -1.251560
-52.059204 1.538133 52.401989 -2.800584 0.595246 94.311356 3.000173 4.341805 -3.880287 -6.896564 3.912024 2.876623 6.988724 -17.207273 -7.148803 -1.050677 -12.547880 -20.035652 -6.931794 5.458293 -4.623917 -0.981313 9.482435 7.022155 3.515233 -16.477591 0.682532 12.013558 73.404160 -20.350643 6.005959 -18.263988 5.262520 -2.483383 25.140785 -2.242846
-50.134342 1.608448 52.472305 -2.785782 0.791497 93.952873 2.243027 4.315962 -2.942988 -6.860267 4.860254 2.462715 7.194232 -12.914461 -5.155240 -1.528241 -9.770343 -21.272751 -7.987527 1.802418 0.860867 -1.349555 -2.431335 23.556229 4.397539 -23.908894 0.336296 10.936415 77.089584 -19.888590 5.794954 -14.762098 5.603500 -2.206713 23.073400 -3.141302
-48.965363 1.652394 52.401989 -2.965258 0.913789 93.703255 1.790819 4.101153 -2.446916 -6.965577 5.445966 2.377824 7.181739 -10.403481 -3.603471 -1.596781 -8.058292 -21.472141 -8.404445 -0.564025 3.267662 -1.306418 -1.335787 14.695263 4.810264 -27.530005 0.708288 11.024786 76.304970 -20.659164 5.628173 -12.715020 5.086336 -2.537617 21.577370 -2.582428
-48.016113 1.713920 52.384411 -3.054411 0.956654 93.423042 1.403305 4.026448 -2.025196 -6.944144 5.826318 2.364196 7.167835 -8.229202 -2.045799 -1.625883 -6.207492 -21.491348 -8.573926 -2.791140 5.272374 -0.587486 -1.206939 9.324747 4.925158 -30.213881 1.071955 8.069006 73.980904 -18.115742 5.477201 -10.948811 4.600297 -2.661667 20.381462 -2.009876
-45.906673 1.529344 52.314095 -3.243529 1.338780 92.800438 0.252443 3.972157 -1.126976 -6.784269 6.318720 2.250535 7.075985 -3.986389 1.752787 -1.282492 -1.881761 -21.871861 -8.523111 -7.883487 8.772979 -0.673129 -4.447848 7.277822 4.755167 -33.704681 1.660839 0.048289 63.664509 -10.852477 4.918338 -7.204659 3.157014 -3.134207 18.871775 -0.433092
-44.939850 1.476608 52.208626 -3.300780 1.425931 92.241402 -0.265861 4.012620 -0.598304 -6.548251 6.340199 2.360981 7.101221 -2.162748 3.503997 -0.861410 0.252734 -21.956564 -8.425634 -10.241449 10.762558 -0.800622 -6.470970 5.817623 4.675820 -34.364681 2.001969 -3.236367 55.995949 -7.811220 4.650457 -5.242631 2.396842 -3.506596 18.388805 1.038221
-42.698570 1.212928 52.173466 -3.459181 1.590271 91.373016 -1.172322 3.848082 0.292722 -6.226017 6.158332 2.401176 7.206719 1.587757 6.373596 0.616347 3.408880 -22.135818 -8.211111 -14.178245 13.582314 -0.925844 -10.876866 4.180525 3.836275 -35.155067 -1.017163 -7.430963 39.501240 -1.994321 4.028171 -1.633768 0.999261 -3.547833 17.400179 3.220844
-41.591114 0.975616 52.006470 -3.438376 1.727125 90.621361 -1.653467 3.816480 1.215395 -6.011742 5.966980 2.217445 7.410958 3.287490 7.237596 1.426368 4.511449 -22.573627 -8.177384 -15.813594 14.776814 -0.886054 -13.197494 3.128731 3.792975 -35.619583 -3.308408 -7.992043 32.594296 0.554924 3.854653 0.187662 0.456214 -4.012203 17.209490 4.785958
-40.439713 0.738304 51.883419 -3.449121 1.946743 89.865585 -2.213633 3.490141 1.842723 -5.837141 6.020771 2.367517 7.596775 5.305493 8.134082 2.337153 5.427722 -22.944496 -8.058599 -17.085646 16.001394 -0.976375 -15.366085 2.380174 4.000478 -36.191212 -5.731862 -7.652180 27.436129 3.676502 3.306762 2.031503 -0.392248 -4.386794 17.500170 6.484200
-38.084171 0.298837 51.470322 -3.239693 2.337811 88.650238 -3.166224 2.969861 3.125381 -5.476344 6.162354 2.428606 7.719115 8.779017 9.191028 3.919651 6.619512 -23.615572 -7.812930 -18.581320 17.005516 -0.669293 -19.163845 1.557889 4.299672 -36.130886 -7.163165 -6.242702 20.842375 6.737353 2.306826 5.018950 -2.786798 -5.643620 18.830286 10.127934
-36.888821 0.070315 51.233009 -2.935789 2.691460 87.952271 -3.793839 2.718290 3.703634 -5.348159 6.416866 2.545280 7.680973 10.258440 9.795702 4.641807 7.159627 -23.880230 -7.641563 -18.744314 17.215454 -0.372472 -20.776039 1.485244 4.790834 -36.279587 -5.862175 -7.305477 20.482908 6.978127 1.340126 6.529441 -4.499460 -6.692193 20.827585 11.905589
-34.419018 -0.140629 50.819912 -2.176421 3.473971 87.179794 -4.824710 2.420508 4.531211 -5.313769 7.324248 2.788532 7.275272 11.831826 10.515843 5.676980 8.239144 -24.147881 -7.373511 -18.021059 16.091700 0.706183 -22.569780 2.283288 4.199098 -34.396053 -1.060702 -8.686667 22.643942 2.356849 -0.849618 7.369788 -8.194098 -9.843075 27.409527 15.020087
-33.135777 -0.210944 50.626545 -1.831660 3.926888 86.881462 -5.328225 2.432191 4.810102 -5.341406 7.524329 2.928459 7.087312 11.758360 10.607119 5.994599 8.694971 -24.204473 -7.211360 -17.218746 15.133206 1.380930 -22.987463 2.945670 2.672483 -33.235828 -0.009346 -7.980742 25.281137 -0.097457 -1.951898 6.378024 -9.652305 -12.961307 32.982674 17.095049
-30.789026 -0.140629 50.213448 -1.501684 4.441500 86.090408 -5.803033 2.459128 5.332181 -5.439374 7.249590 3.235499 6.785469 10.435645 9.763104 5.589518 8.406598 -23.988766 -7.066203 -15.172237 12.964217 3.037496 -22.397825 4.758277 0.352058 -30.202372 1.617229 -6.730340 28.375483 -4.411345 -2.300575 0.930629 -11.937069 -22.964670 45.872681 23.625744
-29.663992 -0.043947 50.002502 -1.563851 4.620371 85.644623 -5.903210 2.419418 5.226431 -5.546652 7.018851 3.823466 6.731943 9.362782 8.933977 4.772858 7.557425 -23.705011 -6.867654 -14.217514 12.313677 3.690876 -21.412525 5.878386 -0.708533 -28.753204 0.971800 -5.865829 29.530804 -4.359354 -2.267999 -2.804266 -14.101129 -31.178595 52.203640 29.721968
